<?xml version="1.0" encoding="utf-8"?>
<!-- Generator: Adobe Illustrator 24.3.0, SVG Export Plug-In . SVG Version: 6.00 Build 0)  -->
<svg version="1.1" id="Layer_1" xmlns="http://www.w3.org/2000/svg" xmlns:xlink="http://www.w3.org/1999/xlink" x="0px" y="0px"
	 viewBox="0 0 44 44" style="enable-background:new 0 0 44 44;" xml:space="preserve">
<style type="text/css">
	.st0{fill:#0000FF;}
</style>
<path class="st0" d="M22,27.2L16.8,22l5.2-5.2l5.2,5.2L22,27.2z M17.8,12.6l-4.1-4.2L22,0l8.4,8.4l-4.1,4.1L22,8.3L17.8,12.6z
	 M8.4,30.4L0,22l8.4-8.4l4.1,4.1L8.3,22l4.2,4.2L8.4,30.4z M35.6,30.4l-4.1-4.1l4.3-4.2l-4.2-4.2l4.2-4.1L44,22L35.6,30.4z M22,44
	l-8.4-8.4l4.1-4.1l4.2,4.3l4.2-4.2l4.1,4.2L22,44z"/>
</svg>
